<mxfile host="drawio-plugin" modified="2021-10-28T18:47:53.916Z" agent="5.0 (Windows NT 6.2; Win64; x64) AppleWebKit/537.36 (KHTML, like Gecko) Chrome/89.0.4389.114 Safari/537.36" etag="85vRji2VcTXexWH-3KKh" version="14.7.4" type="embed"><diagram id="vYIt0Ycd8OxYCcoKvCmr" name="Page-1"><mxGraphModel dx="379" dy="440" grid="1" gridSize="10" guides="1" tooltips="1" connect="1" arrows="1" fold="1" page="1" pageScale="1" pageWidth="827" pageHeight="1169" math="0" shadow="0"><root><mxCell id="0"/><mxCell id="1" parent="0"/><mxCell id="kpBeF7ZBURR7WQSXxTqn-1" value="VPage" style="swimlane;fontStyle=1;align=center;verticalAlign=top;childLayout=stackLayout;horizontal=1;startSize=26;horizontalStack=0;resizeParent=1;resizeParentMax=0;resizeLast=0;collapsible=1;marginBottom=0;" parent="1" vertex="1"><mxGeometry x="240" y="40" width="349" height="116" as="geometry"><mxRectangle x="410" y="80" width="130" height="26" as="alternateBounds"/></mxGeometry></mxCell><mxCell id="kpBeF7ZBURR7WQSXxTqn-5" value="+ setMenuLeft(array eCategorie): void" style="text;strokeColor=none;fillColor=none;align=left;verticalAlign=top;spacingLeft=4;spacingRight=4;overflow=hidden;rotatable=0;points=[[0,0.5],[1,0.5]];portConstraint=eastwest;" parent="kpBeF7ZBURR7WQSXxTqn-1" vertex="1"><mxGeometry y="26" width="349" height="30" as="geometry"/></mxCell><mxCell id="kpBeF7ZBURR7WQSXxTqn-9" value="+ setBottoneFiltra(array eCategorie): void" style="text;strokeColor=none;fillColor=none;align=left;verticalAlign=top;spacingLeft=4;spacingRight=4;overflow=hidden;rotatable=0;points=[[0,0.5],[1,0.5]];portConstraint=eastwest;" parent="kpBeF7ZBURR7WQSXxTqn-1" vertex="1"><mxGeometry y="56" width="349" height="30" as="geometry"/></mxCell><mxCell id="kpBeF7ZBURR7WQSXxTqn-10" value="+ setMenuUtente(?EUser user, ?bool verificaAdmin): void" style="text;strokeColor=none;fillColor=none;align=left;verticalAlign=top;spacingLeft=4;spacingRight=4;overflow=hidden;rotatable=0;points=[[0,0.5],[1,0.5]];portConstraint=eastwest;" parent="kpBeF7ZBURR7WQSXxTqn-1" vertex="1"><mxGeometry y="86" width="349" height="30" as="geometry"/></mxCell><mxCell id="kpBeF7ZBURR7WQSXxTqn-13" value="VHome" style="swimlane;fontStyle=1;align=center;verticalAlign=top;childLayout=stackLayout;horizontal=1;startSize=26;horizontalStack=0;resizeParent=1;resizeParentMax=0;resizeLast=0;collapsible=1;marginBottom=0;" parent="1" vertex="1"><mxGeometry x="154" y="170" width="520" height="176" as="geometry"><mxRectangle x="410" y="80" width="130" height="26" as="alternateBounds"/></mxGeometry></mxCell><mxCell id="kpBeF7ZBURR7WQSXxTqn-16" value="+ setInterazioneChat(bool loggato): void" style="text;strokeColor=none;fillColor=none;align=left;verticalAlign=top;spacingLeft=4;spacingRight=4;overflow=hidden;rotatable=0;points=[[0,0.5],[1,0.5]];portConstraint=eastwest;" parent="kpBeF7ZBURR7WQSXxTqn-13" vertex="1"><mxGeometry y="26" width="520" height="30" as="geometry"/></mxCell><mxCell id="kpBeF7ZBURR7WQSXxTqn-17" value="+ setBoxThread(array threadsConPiuRisposte, array threadsConValutazionePiuAlta): void" style="text;strokeColor=none;fillColor=none;align=left;verticalAlign=top;spacingLeft=4;spacingRight=4;overflow=hidden;rotatable=0;points=[[0,0.5],[1,0.5]];portConstraint=eastwest;" parent="kpBeF7ZBURR7WQSXxTqn-13" vertex="1"><mxGeometry y="56" width="520" height="30" as="geometry"/></mxCell><mxCell id="kpBeF7ZBURR7WQSXxTqn-18" value="+ setBottoneElimina(?bool utenteModeratoreAdminLoggato): void" style="text;strokeColor=none;fillColor=none;align=left;verticalAlign=top;spacingLeft=4;spacingRight=4;overflow=hidden;rotatable=0;points=[[0,0.5],[1,0.5]];portConstraint=eastwest;" parent="kpBeF7ZBURR7WQSXxTqn-13" vertex="1"><mxGeometry y="86" width="520" height="30" as="geometry"/></mxCell><mxCell id="HADFciOewPBgPoMnjp6_-1" value="+ setMessaggiErroreConferma(string tipologiaMessaggio): void" style="text;strokeColor=none;fillColor=none;align=left;verticalAlign=top;spacingLeft=4;spacingRight=4;overflow=hidden;rotatable=0;points=[[0,0.5],[1,0.5]];portConstraint=eastwest;" parent="kpBeF7ZBURR7WQSXxTqn-13" vertex="1"><mxGeometry y="116" width="520" height="30" as="geometry"/></mxCell><mxCell id="kpBeF7ZBURR7WQSXxTqn-20" value="+ showHome(): void" style="text;strokeColor=none;fillColor=none;align=left;verticalAlign=top;spacingLeft=4;spacingRight=4;overflow=hidden;rotatable=0;points=[[0,0.5],[1,0.5]];portConstraint=eastwest;" parent="kpBeF7ZBURR7WQSXxTqn-13" vertex="1"><mxGeometry y="146" width="520" height="30" as="geometry"/></mxCell><mxCell id="kpBeF7ZBURR7WQSXxTqn-21" value="VCategoria" style="swimlane;fontStyle=1;align=center;verticalAlign=top;childLayout=stackLayout;horizontal=1;startSize=26;horizontalStack=0;resizeParent=1;resizeParentMax=0;resizeLast=0;collapsible=1;marginBottom=0;" parent="1" vertex="1"><mxGeometry x="20" y="360" width="410" height="326" as="geometry"><mxRectangle x="410" y="80" width="130" height="26" as="alternateBounds"/></mxGeometry></mxCell><mxCell id="kpBeF7ZBURR7WQSXxTqn-22" value="+ setIntestazionePagina(ECategoria categoria): void" style="text;strokeColor=none;fillColor=none;align=left;verticalAlign=top;spacingLeft=4;spacingRight=4;overflow=hidden;rotatable=0;points=[[0,0.5],[1,0.5]];portConstraint=eastwest;" parent="kpBeF7ZBURR7WQSXxTqn-21" vertex="1"><mxGeometry y="26" width="410" height="30" as="geometry"/></mxCell><mxCell id="kpBeF7ZBURR7WQSXxTqn-25" value="+ setThreads(array EThread threads): void" style="text;strokeColor=none;fillColor=none;align=left;verticalAlign=top;spacingLeft=4;spacingRight=4;overflow=hidden;rotatable=0;points=[[0,0.5],[1,0.5]];portConstraint=eastwest;" parent="kpBeF7ZBURR7WQSXxTqn-21" vertex="1"><mxGeometry y="56" width="410" height="30" as="geometry"/></mxCell><mxCell id="5" value="+ setPaginazione(int numeroThread): void" style="text;strokeColor=none;fillColor=none;align=left;verticalAlign=top;spacingLeft=4;spacingRight=4;overflow=hidden;rotatable=0;points=[[0,0.5],[1,0.5]];portConstraint=eastwest;" vertex="1" parent="kpBeF7ZBURR7WQSXxTqn-21"><mxGeometry y="86" width="410" height="30" as="geometry"/></mxCell><mxCell id="kpBeF7ZBURR7WQSXxTqn-26" value="+ setActivePage(int numeroPagina): void" style="text;strokeColor=none;fillColor=none;align=left;verticalAlign=top;spacingLeft=4;spacingRight=4;overflow=hidden;rotatable=0;points=[[0,0.5],[1,0.5]];portConstraint=eastwest;" parent="kpBeF7ZBURR7WQSXxTqn-21" vertex="1"><mxGeometry y="116" width="410" height="30" as="geometry"/></mxCell><mxCell id="kpBeF7ZBURR7WQSXxTqn-28" value="+ setBottoneCreazioneThread(bool loggato, ?ECategoria categoria): void" style="text;strokeColor=none;fillColor=none;align=left;verticalAlign=top;spacingLeft=4;spacingRight=4;overflow=hidden;rotatable=0;points=[[0,0.5],[1,0.5]];portConstraint=eastwest;" parent="kpBeF7ZBURR7WQSXxTqn-21" vertex="1"><mxGeometry y="146" width="410" height="30" as="geometry"/></mxCell><mxCell id="kpBeF7ZBURR7WQSXxTqn-35" value="+ setMessaggioConfermaEliminazioneThread(): void" style="text;strokeColor=none;fillColor=none;align=left;verticalAlign=top;spacingLeft=4;spacingRight=4;overflow=hidden;rotatable=0;points=[[0,0.5],[1,0.5]];portConstraint=eastwest;" parent="kpBeF7ZBURR7WQSXxTqn-21" vertex="1"><mxGeometry y="176" width="410" height="30" as="geometry"/></mxCell><mxCell id="kpBeF7ZBURR7WQSXxTqn-67" value="+ setCategoriaRicerca(?ECategoria categoria): void" style="text;strokeColor=none;fillColor=none;align=left;verticalAlign=top;spacingLeft=4;spacingRight=4;overflow=hidden;rotatable=0;points=[[0,0.5],[1,0.5]];portConstraint=eastwest;" parent="kpBeF7ZBURR7WQSXxTqn-21" vertex="1"><mxGeometry y="206" width="410" height="30" as="geometry"/></mxCell><mxCell id="kpBeF7ZBURR7WQSXxTqn-27" value="+ showCategoria(): void" style="text;strokeColor=none;fillColor=none;align=left;verticalAlign=top;spacingLeft=4;spacingRight=4;overflow=hidden;rotatable=0;points=[[0,0.5],[1,0.5]];portConstraint=eastwest;" parent="kpBeF7ZBURR7WQSXxTqn-21" vertex="1"><mxGeometry y="236" width="410" height="30" as="geometry"/></mxCell><mxCell id="4" value="+ showRicerca(): void" style="text;strokeColor=none;fillColor=none;align=left;verticalAlign=top;spacingLeft=4;spacingRight=4;overflow=hidden;rotatable=0;points=[[0,0.5],[1,0.5]];portConstraint=eastwest;" vertex="1" parent="kpBeF7ZBURR7WQSXxTqn-21"><mxGeometry y="266" width="410" height="30" as="geometry"/></mxCell><mxCell id="87zqAaviE5XPVooWLCbC-1" value="+ setIDThread(ECategoria categoria): void" style="text;strokeColor=none;fillColor=none;align=left;verticalAlign=top;spacingLeft=4;spacingRight=4;overflow=hidden;rotatable=0;points=[[0,0.5],[1,0.5]];portConstraint=eastwest;" parent="kpBeF7ZBURR7WQSXxTqn-21" vertex="1"><mxGeometry y="296" width="410" height="30" as="geometry"/></mxCell><mxCell id="kpBeF7ZBURR7WQSXxTqn-29" value="VThread" style="swimlane;fontStyle=1;align=center;verticalAlign=top;childLayout=stackLayout;horizontal=1;startSize=26;horizontalStack=0;resizeParent=1;resizeParentMax=0;resizeLast=0;collapsible=1;marginBottom=0;" parent="1" vertex="1"><mxGeometry x="460" y="360" width="350" height="236" as="geometry"><mxRectangle x="410" y="80" width="130" height="26" as="alternateBounds"/></mxGeometry></mxCell><mxCell id="kpBeF7ZBURR7WQSXxTqn-30" value="+ setURLNavigazione(): void" style="text;strokeColor=none;fillColor=none;align=left;verticalAlign=top;spacingLeft=4;spacingRight=4;overflow=hidden;rotatable=0;points=[[0,0.5],[1,0.5]];portConstraint=eastwest;" parent="kpBeF7ZBURR7WQSXxTqn-29" vertex="1"><mxGeometry y="26" width="350" height="30" as="geometry"/></mxCell><mxCell id="kpBeF7ZBURR7WQSXxTqn-36" value="+ setThread(EThread thread): void" style="text;strokeColor=none;fillColor=none;align=left;verticalAlign=top;spacingLeft=4;spacingRight=4;overflow=hidden;rotatable=0;points=[[0,0.5],[1,0.5]];portConstraint=eastwest;" parent="kpBeF7ZBURR7WQSXxTqn-29" vertex="1"><mxGeometry y="56" width="350" height="30" as="geometry"/></mxCell><mxCell id="kpBeF7ZBURR7WQSXxTqn-37" value="+ setBottoniElimina(bool moderatoreAdminLoggato): void" style="text;strokeColor=none;fillColor=none;align=left;verticalAlign=top;spacingLeft=4;spacingRight=4;overflow=hidden;rotatable=0;points=[[0,0.5],[1,0.5]];portConstraint=eastwest;" parent="kpBeF7ZBURR7WQSXxTqn-29" vertex="1"><mxGeometry y="86" width="350" height="30" as="geometry"/></mxCell><mxCell id="kpBeF7ZBURR7WQSXxTqn-38" value="+ setFormRisposta(bool loggato, ?EThread thread): void" style="text;strokeColor=none;fillColor=none;align=left;verticalAlign=top;spacingLeft=4;spacingRight=4;overflow=hidden;rotatable=0;points=[[0,0.5],[1,0.5]];portConstraint=eastwest;" parent="kpBeF7ZBURR7WQSXxTqn-29" vertex="1"><mxGeometry y="116" width="350" height="30" as="geometry"/></mxCell><mxCell id="kpBeF7ZBURR7WQSXxTqn-39" value="+ setMessaggiErroreConferma(string tipologiaMessaggio): void" style="text;strokeColor=none;fillColor=none;align=left;verticalAlign=top;spacingLeft=4;spacingRight=4;overflow=hidden;rotatable=0;points=[[0,0.5],[1,0.5]];portConstraint=eastwest;" parent="kpBeF7ZBURR7WQSXxTqn-29" vertex="1"><mxGeometry y="146" width="350" height="30" as="geometry"/></mxCell><mxCell id="kpBeF7ZBURR7WQSXxTqn-41" value="+ setBottoniValutazione(bool loggato, ?int giudizio): void" style="text;strokeColor=none;fillColor=none;align=left;verticalAlign=top;spacingLeft=4;spacingRight=4;overflow=hidden;rotatable=0;points=[[0,0.5],[1,0.5]];portConstraint=eastwest;" parent="kpBeF7ZBURR7WQSXxTqn-29" vertex="1"><mxGeometry y="176" width="350" height="30" as="geometry"/></mxCell><mxCell id="kpBeF7ZBURR7WQSXxTqn-40" value="+ showThread(): void" style="text;strokeColor=none;fillColor=none;align=left;verticalAlign=top;spacingLeft=4;spacingRight=4;overflow=hidden;rotatable=0;points=[[0,0.5],[1,0.5]];portConstraint=eastwest;" parent="kpBeF7ZBURR7WQSXxTqn-29" vertex="1"><mxGeometry y="206" width="350" height="30" as="geometry"/></mxCell><mxCell id="kpBeF7ZBURR7WQSXxTqn-51" value="VAmministrazione" style="swimlane;fontStyle=1;align=center;verticalAlign=top;childLayout=stackLayout;horizontal=1;startSize=26;horizontalStack=0;resizeParent=1;resizeParentMax=0;resizeLast=0;collapsible=1;marginBottom=0;" parent="1" vertex="1"><mxGeometry x="10" y="810" width="394" height="296" as="geometry"><mxRectangle x="410" y="80" width="130" height="26" as="alternateBounds"/></mxGeometry></mxCell><mxCell id="kpBeF7ZBURR7WQSXxTqn-52" value="+ setPaginazioneUtenti(int numeroUtenti): void" style="text;strokeColor=none;fillColor=none;align=left;verticalAlign=top;spacingLeft=4;spacingRight=4;overflow=hidden;rotatable=0;points=[[0,0.5],[1,0.5]];portConstraint=eastwest;" parent="kpBeF7ZBURR7WQSXxTqn-51" vertex="1"><mxGeometry y="26" width="394" height="30" as="geometry"/></mxCell><mxCell id="kpBeF7ZBURR7WQSXxTqn-59" value="+ setPaginazioneCategorie(int numeroCategorie): void" style="text;strokeColor=none;fillColor=none;align=left;verticalAlign=top;spacingLeft=4;spacingRight=4;overflow=hidden;rotatable=0;points=[[0,0.5],[1,0.5]];portConstraint=eastwest;" parent="kpBeF7ZBURR7WQSXxTqn-51" vertex="1"><mxGeometry y="56" width="394" height="30" as="geometry"/></mxCell><mxCell id="kpBeF7ZBURR7WQSXxTqn-60" value="+ setBottoneAggiungiRimuoviModeratore(array categorie): void" style="text;strokeColor=none;fillColor=none;align=left;verticalAlign=top;spacingLeft=4;spacingRight=4;overflow=hidden;rotatable=0;points=[[0,0.5],[1,0.5]];portConstraint=eastwest;" parent="kpBeF7ZBURR7WQSXxTqn-51" vertex="1"><mxGeometry y="86" width="394" height="30" as="geometry"/></mxCell><mxCell id="kpBeF7ZBURR7WQSXxTqn-61" value="+ setMessaggiConfermaErroreOperazione(?bool esitoOperazione): void" style="text;strokeColor=none;fillColor=none;align=left;verticalAlign=top;spacingLeft=4;spacingRight=4;overflow=hidden;rotatable=0;points=[[0,0.5],[1,0.5]];portConstraint=eastwest;" parent="kpBeF7ZBURR7WQSXxTqn-51" vertex="1"><mxGeometry y="116" width="394" height="30" as="geometry"/></mxCell><mxCell id="xCQlvihHJO_JHPv_d6p--1" value="+ getValorePaginaUtenti(): ?int" style="text;strokeColor=none;fillColor=none;align=left;verticalAlign=top;spacingLeft=4;spacingRight=4;overflow=hidden;rotatable=0;points=[[0,0.5],[1,0.5]];portConstraint=eastwest;" parent="kpBeF7ZBURR7WQSXxTqn-51" vertex="1"><mxGeometry y="146" width="394" height="30" as="geometry"/></mxCell><mxCell id="xCQlvihHJO_JHPv_d6p--2" value="+ getValorePaginaCategorie(): ?int" style="text;strokeColor=none;fillColor=none;align=left;verticalAlign=top;spacingLeft=4;spacingRight=4;overflow=hidden;rotatable=0;points=[[0,0.5],[1,0.5]];portConstraint=eastwest;" parent="kpBeF7ZBURR7WQSXxTqn-51" vertex="1"><mxGeometry y="176" width="394" height="30" as="geometry"/></mxCell><mxCell id="xCQlvihHJO_JHPv_d6p--3" value="+ getValoreIdCategoriaModeratore(): ?int" style="text;strokeColor=none;fillColor=none;align=left;verticalAlign=top;spacingLeft=4;spacingRight=4;overflow=hidden;rotatable=0;points=[[0,0.5],[1,0.5]];portConstraint=eastwest;" parent="kpBeF7ZBURR7WQSXxTqn-51" vertex="1"><mxGeometry y="206" width="394" height="30" as="geometry"/></mxCell><mxCell id="xCQlvihHJO_JHPv_d6p--4" value="+ getValoreIdCategoriaContaThreads(): ?int" style="text;strokeColor=none;fillColor=none;align=left;verticalAlign=top;spacingLeft=4;spacingRight=4;overflow=hidden;rotatable=0;points=[[0,0.5],[1,0.5]];portConstraint=eastwest;" parent="kpBeF7ZBURR7WQSXxTqn-51" vertex="1"><mxGeometry y="236" width="394" height="30" as="geometry"/></mxCell><mxCell id="kpBeF7ZBURR7WQSXxTqn-62" value="+ showPannello(): void" style="text;strokeColor=none;fillColor=none;align=left;verticalAlign=top;spacingLeft=4;spacingRight=4;overflow=hidden;rotatable=0;points=[[0,0.5],[1,0.5]];portConstraint=eastwest;" parent="kpBeF7ZBURR7WQSXxTqn-51" vertex="1"><mxGeometry y="266" width="394" height="30" as="geometry"/></mxCell><mxCell id="kpBeF7ZBURR7WQSXxTqn-56" value="VPersonalProfile" style="swimlane;fontStyle=1;align=center;verticalAlign=top;childLayout=stackLayout;horizontal=1;startSize=26;horizontalStack=0;resizeParent=1;resizeParentMax=0;resizeLast=0;collapsible=1;marginBottom=0;" parent="1" vertex="1"><mxGeometry x="450" y="620" width="350" height="116" as="geometry"><mxRectangle x="410" y="80" width="130" height="26" as="alternateBounds"/></mxGeometry></mxCell><mxCell id="kpBeF7ZBURR7WQSXxTqn-57" value="+ setUtente(EUser user): void" style="text;strokeColor=none;fillColor=none;align=left;verticalAlign=top;spacingLeft=4;spacingRight=4;overflow=hidden;rotatable=0;points=[[0,0.5],[1,0.5]];portConstraint=eastwest;" parent="kpBeF7ZBURR7WQSXxTqn-56" vertex="1"><mxGeometry y="26" width="350" height="30" as="geometry"/></mxCell><mxCell id="xCQlvihHJO_JHPv_d6p--7" value="+ setMessaggiConfermaErroreModificaProfilo(?bool esito): void" style="text;strokeColor=none;fillColor=none;align=left;verticalAlign=top;spacingLeft=4;spacingRight=4;overflow=hidden;rotatable=0;points=[[0,0.5],[1,0.5]];portConstraint=eastwest;" parent="kpBeF7ZBURR7WQSXxTqn-56" vertex="1"><mxGeometry y="56" width="350" height="30" as="geometry"/></mxCell><mxCell id="kpBeF7ZBURR7WQSXxTqn-58" value="+ showUtente(): void" style="text;strokeColor=none;fillColor=none;align=left;verticalAlign=top;spacingLeft=4;spacingRight=4;overflow=hidden;rotatable=0;points=[[0,0.5],[1,0.5]];portConstraint=eastwest;" parent="kpBeF7ZBURR7WQSXxTqn-56" vertex="1"><mxGeometry y="86" width="350" height="30" as="geometry"/></mxCell><mxCell id="kpBeF7ZBURR7WQSXxTqn-63" value="VProfile" style="swimlane;fontStyle=1;align=center;verticalAlign=top;childLayout=stackLayout;horizontal=1;startSize=26;horizontalStack=0;resizeParent=1;resizeParentMax=0;resizeLast=0;collapsible=1;marginBottom=0;" parent="1" vertex="1"><mxGeometry x="116.5" y="700" width="181" height="86" as="geometry"><mxRectangle x="410" y="80" width="130" height="26" as="alternateBounds"/></mxGeometry></mxCell><mxCell id="kpBeF7ZBURR7WQSXxTqn-64" value="+ setUtente(EUser user): void" style="text;strokeColor=none;fillColor=none;align=left;verticalAlign=top;spacingLeft=4;spacingRight=4;overflow=hidden;rotatable=0;points=[[0,0.5],[1,0.5]];portConstraint=eastwest;" parent="kpBeF7ZBURR7WQSXxTqn-63" vertex="1"><mxGeometry y="26" width="181" height="30" as="geometry"/></mxCell><mxCell id="kpBeF7ZBURR7WQSXxTqn-65" value="+ showUtente(): void" style="text;strokeColor=none;fillColor=none;align=left;verticalAlign=top;spacingLeft=4;spacingRight=4;overflow=hidden;rotatable=0;points=[[0,0.5],[1,0.5]];portConstraint=eastwest;" parent="kpBeF7ZBURR7WQSXxTqn-63" vertex="1"><mxGeometry y="56" width="181" height="30" as="geometry"/></mxCell><mxCell id="uy9Vc4gvhjxHCPs9r5HC-1" value="VForm" style="swimlane;fontStyle=1;align=center;verticalAlign=top;childLayout=stackLayout;horizontal=1;startSize=26;horizontalStack=0;resizeParent=1;resizeParentMax=0;resizeLast=0;collapsible=1;marginBottom=0;" parent="1" vertex="1"><mxGeometry x="420" y="750" width="400" height="388" as="geometry"/></mxCell><mxCell id="uy9Vc4gvhjxHCPs9r5HC-2" value="+ FORM_REGISTRAZIONE" style="text;strokeColor=none;fillColor=none;align=left;verticalAlign=top;spacingLeft=4;spacingRight=4;overflow=hidden;rotatable=0;points=[[0,0.5],[1,0.5]];portConstraint=eastwest;" parent="uy9Vc4gvhjxHCPs9r5HC-1" vertex="1"><mxGeometry y="26" width="400" height="26" as="geometry"/></mxCell><mxCell id="uy9Vc4gvhjxHCPs9r5HC-5" value="+ FORM_LOGIN" style="text;strokeColor=none;fillColor=none;align=left;verticalAlign=top;spacingLeft=4;spacingRight=4;overflow=hidden;rotatable=0;points=[[0,0.5],[1,0.5]];portConstraint=eastwest;" parent="uy9Vc4gvhjxHCPs9r5HC-1" vertex="1"><mxGeometry y="52" width="400" height="26" as="geometry"/></mxCell><mxCell id="uy9Vc4gvhjxHCPs9r5HC-6" value="+ FORM_RECUPERO_PASSWORD" style="text;strokeColor=none;fillColor=none;align=left;verticalAlign=top;spacingLeft=4;spacingRight=4;overflow=hidden;rotatable=0;points=[[0,0.5],[1,0.5]];portConstraint=eastwest;" parent="uy9Vc4gvhjxHCPs9r5HC-1" vertex="1"><mxGeometry y="78" width="400" height="26" as="geometry"/></mxCell><mxCell id="uy9Vc4gvhjxHCPs9r5HC-11" value="+ FORM_RICERCA" style="text;strokeColor=none;fillColor=none;align=left;verticalAlign=top;spacingLeft=4;spacingRight=4;overflow=hidden;rotatable=0;points=[[0,0.5],[1,0.5]];portConstraint=eastwest;" parent="uy9Vc4gvhjxHCPs9r5HC-1" vertex="1"><mxGeometry y="104" width="400" height="26" as="geometry"/></mxCell><mxCell id="uy9Vc4gvhjxHCPs9r5HC-9" value="+ FORM_CREAZIONE_THREAD" style="text;strokeColor=none;fillColor=none;align=left;verticalAlign=top;spacingLeft=4;spacingRight=4;overflow=hidden;rotatable=0;points=[[0,0.5],[1,0.5]];portConstraint=eastwest;" parent="uy9Vc4gvhjxHCPs9r5HC-1" vertex="1"><mxGeometry y="130" width="400" height="26" as="geometry"/></mxCell><mxCell id="uy9Vc4gvhjxHCPs9r5HC-10" value="+ FORM_CREAZIONE_CATEGORIA" style="text;strokeColor=none;fillColor=none;align=left;verticalAlign=top;spacingLeft=4;spacingRight=4;overflow=hidden;rotatable=0;points=[[0,0.5],[1,0.5]];portConstraint=eastwest;" parent="uy9Vc4gvhjxHCPs9r5HC-1" vertex="1"><mxGeometry y="156" width="400" height="26" as="geometry"/></mxCell><mxCell id="uy9Vc4gvhjxHCPs9r5HC-7" value="+ FORM_INVIO_MESSAGGIO" style="text;strokeColor=none;fillColor=none;align=left;verticalAlign=top;spacingLeft=4;spacingRight=4;overflow=hidden;rotatable=0;points=[[0,0.5],[1,0.5]];portConstraint=eastwest;" parent="uy9Vc4gvhjxHCPs9r5HC-1" vertex="1"><mxGeometry y="182" width="400" height="26" as="geometry"/></mxCell><mxCell id="uy9Vc4gvhjxHCPs9r5HC-8" value="+ FORM_INVIO_RISPOSTA" style="text;strokeColor=none;fillColor=none;align=left;verticalAlign=top;spacingLeft=4;spacingRight=4;overflow=hidden;rotatable=0;points=[[0,0.5],[1,0.5]];portConstraint=eastwest;" parent="uy9Vc4gvhjxHCPs9r5HC-1" vertex="1"><mxGeometry y="208" width="400" height="26" as="geometry"/></mxCell><mxCell id="xCQlvihHJO_JHPv_d6p--6" value="+ FORM_PROFILO_PERSONALE" style="text;strokeColor=none;fillColor=none;align=left;verticalAlign=top;spacingLeft=4;spacingRight=4;overflow=hidden;rotatable=0;points=[[0,0.5],[1,0.5]];portConstraint=eastwest;" parent="uy9Vc4gvhjxHCPs9r5HC-1" vertex="1"><mxGeometry y="234" width="400" height="26" as="geometry"/></mxCell><mxCell id="uy9Vc4gvhjxHCPs9r5HC-3" value="" style="line;strokeWidth=1;fillColor=none;align=left;verticalAlign=middle;spacingTop=-1;spacingLeft=3;spacingRight=3;rotatable=0;labelPosition=right;points=[];portConstraint=eastwest;" parent="uy9Vc4gvhjxHCPs9r5HC-1" vertex="1"><mxGeometry y="260" width="400" height="8" as="geometry"/></mxCell><mxCell id="kpBeF7ZBURR7WQSXxTqn-66" value="+ setCategoriaCreazioneThread(ECategoria categoria): void" style="text;strokeColor=none;fillColor=none;align=left;verticalAlign=top;spacingLeft=4;spacingRight=4;overflow=hidden;rotatable=0;points=[[0,0.5],[1,0.5]];portConstraint=eastwest;" parent="uy9Vc4gvhjxHCPs9r5HC-1" vertex="1"><mxGeometry y="268" width="400" height="30" as="geometry"/></mxCell><mxCell id="kpBeF7ZBURR7WQSXxTqn-43" value="+ setErroriValidazione(?int codiceErrore, ?string messaggioErrore): void" style="text;strokeColor=none;fillColor=none;align=left;verticalAlign=top;spacingLeft=4;spacingRight=4;overflow=hidden;rotatable=0;points=[[0,0.5],[1,0.5]];portConstraint=eastwest;" parent="uy9Vc4gvhjxHCPs9r5HC-1" vertex="1"><mxGeometry y="298" width="400" height="30" as="geometry"/></mxCell><mxCell id="uy9Vc4gvhjxHCPs9r5HC-12" value="+ getValori(int tipologiaForm): ?array" style="text;strokeColor=none;fillColor=none;align=left;verticalAlign=top;spacingLeft=4;spacingRight=4;overflow=hidden;rotatable=0;points=[[0,0.5],[1,0.5]];portConstraint=eastwest;" parent="uy9Vc4gvhjxHCPs9r5HC-1" vertex="1"><mxGeometry y="328" width="400" height="30" as="geometry"/></mxCell><mxCell id="kpBeF7ZBURR7WQSXxTqn-50" value="+ showForm(int tipologiaForm): void" style="text;strokeColor=none;fillColor=none;align=left;verticalAlign=top;spacingLeft=4;spacingRight=4;overflow=hidden;rotatable=0;points=[[0,0.5],[1,0.5]];portConstraint=eastwest;" parent="uy9Vc4gvhjxHCPs9r5HC-1" vertex="1"><mxGeometry y="358" width="400" height="30" as="geometry"/></mxCell></root></mxGraphModel></diagram></mxfile>